<?xml version="1.0" encoding="utf-8"?>
<!-- Generator: Adobe Illustrator 17.0.0, SVG Export Plug-In . SVG Version: 6.00 Build 0)  -->
<!DOCTYPE svg PUBLIC "-//W3C//DTD SVG 1.1//EN" "http://www.w3.org/Graphics/SVG/1.1/DTD/svg11.dtd">
<svg version="1.1" id="Layer_1" xmlns="http://www.w3.org/2000/svg" xmlns:xlink="http://www.w3.org/1999/xlink" x="0px" y="0px"
	 width="100px" height="100px" viewBox="0 0 100 100" enable-background="new 0 0 100 100" xml:space="preserve">
<path d="M66,32.318H34l-9.091,12.121L50,67.682l25.091-23.242L66,32.318z M59.558,45.318l-9.554,18.787L40.53,45.318H59.558z
	 M41.414,43.318L50,34.732l8.586,8.586H41.414z M52.414,34.318h11.618l-3.279,8.339L52.414,34.318z M39.374,42.53l-2.737-8.212
	h10.949L39.374,42.53z M38.291,45.318l8.318,16.496L28.801,45.318H38.291z M61.802,45.318h9.397L53.432,61.776L61.802,45.318z
	 M62.642,43.318l3.133-7.967l5.975,7.967H62.642z M34.674,34.753l2.855,8.566h-9.28L34.674,34.753z"/>
</svg>
